<?xml version="1.0" standalone="no"?>
<!DOCTYPE svg PUBLIC "-//W3C//DTD SVG 20010904//EN"
 "http://www.w3.org/TR/2001/REC-SVG-20010904/DTD/svg10.dtd">
<svg version="1.0" xmlns="http://www.w3.org/2000/svg"
 width="100.000000pt" height="100.000000pt" viewBox="0 0 100.000000 100.000000"
 preserveAspectRatio="xMidYMid meet">
<metadata>
Created by potrace 1.15, written by Peter Selinger 2001-2017
</metadata>
<g transform="translate(0.000000,100.000000) scale(0.100000,-0.100000)"
fill="#000000" stroke="none">
<path d="M143 919 c-66 -19 -68 -26 -71 -391 -3 -367 0 -397 51 -428 30 -19
52 -20 370 -20 283 0 343 2 367 15 58 30 60 41 60 412 0 317 -1 340 -20 370
-13 21 -31 35 -57 42 -47 14 -655 13 -700 0z m701 -60 l26 -20 0 -335 c0 -321
-1 -335 -20 -354 -19 -19 -33 -20 -354 -20 l-335 0 -20 26 c-20 26 -21 38 -21
351 l0 324 25 24 24 25 324 0 c313 0 325 -1 351 -21z"/>
<path d="M439 763 c-55 -9 -133 -66 -165 -121 -55 -92 -55 -183 0 -274 59 -98
167 -144 279 -119 234 52 280 365 72 482 -50 28 -130 42 -186 32z m118 -58
c94 -28 163 -132 150 -227 -12 -89 -96 -173 -185 -185 -97 -13 -200 57 -228
154 -13 45 -14 62 -3 105 20 86 110 161 200 167 8 1 38 -6 66 -14z"/>
</g>
</svg>
